<mxfile host="Electron" modified="2023-08-02T16:39:53.604Z" agent="Mozilla/5.0 (Macintosh; Intel Mac OS X 10_15_7) AppleWebKit/537.36 (KHTML, like Gecko) draw.io/21.6.5 Chrome/114.0.5735.243 Electron/25.3.1 Safari/537.36" etag="dSeSwh7whGbgNQJWZtxe" version="21.6.5" type="device">
  <diagram name="PÃ¡gina-1" id="YHKp0bNGgX1wNTUmp3dq">
    <mxGraphModel dx="392" dy="282" grid="1" gridSize="10" guides="1" tooltips="1" connect="1" arrows="1" fold="1" page="1" pageScale="1" pageWidth="827" pageHeight="1169" math="0" shadow="0">
      <root>
        <mxCell id="0" />
        <mxCell id="1" parent="0" />
        <mxCell id="ynAbOl3x6tVEWtkKChiE-1" value="Persona" style="swimlane;fontStyle=1;align=center;verticalAlign=top;childLayout=stackLayout;horizontal=1;startSize=26;horizontalStack=0;resizeParent=1;resizeParentMax=0;resizeLast=0;collapsible=1;marginBottom=0;whiteSpace=wrap;html=1;" vertex="1" parent="1">
          <mxGeometry x="270" y="210" width="170" height="84" as="geometry" />
        </mxCell>
        <mxCell id="ynAbOl3x6tVEWtkKChiE-3" value="" style="line;strokeWidth=1;fillColor=none;align=left;verticalAlign=middle;spacingTop=-1;spacingLeft=3;spacingRight=3;rotatable=0;labelPosition=right;points=[];portConstraint=eastwest;strokeColor=inherit;" vertex="1" parent="ynAbOl3x6tVEWtkKChiE-1">
          <mxGeometry y="26" width="170" height="8" as="geometry" />
        </mxCell>
        <mxCell id="ynAbOl3x6tVEWtkKChiE-4" value="+&amp;nbsp;imprimirNombre&lt;span style=&quot;background-color: initial;&quot;&gt;(): varchar&lt;/span&gt;" style="text;strokeColor=none;fillColor=none;align=left;verticalAlign=top;spacingLeft=4;spacingRight=4;overflow=hidden;rotatable=0;points=[[0,0.5],[1,0.5]];portConstraint=eastwest;whiteSpace=wrap;html=1;" vertex="1" parent="ynAbOl3x6tVEWtkKChiE-1">
          <mxGeometry y="34" width="170" height="50" as="geometry" />
        </mxCell>
        <mxCell id="ynAbOl3x6tVEWtkKChiE-5" value="ejecutor" style="shape=module;align=left;spacingLeft=20;align=center;verticalAlign=top;whiteSpace=wrap;html=1;" vertex="1" parent="1">
          <mxGeometry x="140" y="294" width="100" height="50" as="geometry" />
        </mxCell>
        <mxCell id="ynAbOl3x6tVEWtkKChiE-8" style="edgeStyle=orthogonalEdgeStyle;rounded=0;orthogonalLoop=1;jettySize=auto;html=1;entryX=0.75;entryY=0;entryDx=0;entryDy=0;endArrow=diamondThin;endFill=0;" edge="1" parent="1" source="ynAbOl3x6tVEWtkKChiE-4" target="ynAbOl3x6tVEWtkKChiE-5">
          <mxGeometry relative="1" as="geometry" />
        </mxCell>
      </root>
    </mxGraphModel>
  </diagram>
</mxfile>
